<?xml version="1.0" encoding="utf-8"?><svg version="1.1" id="Layer_1" xmlns="http://www.w3.org/2000/svg" xmlns:xlink="http://www.w3.org/1999/xlink" x="0px" y="0px" viewBox="0 0 77.17 122.88" style="enable-background:new 0 0 77.17 122.88" xml:space="preserve"><style type="text/css">.st0{fill-rule:evenodd;clip-rule:evenodd;}</style><g><path class="st0" d="M45.92,14.41c1.44-0.78,2.77-1.44,4.02-1.97c-0.03-0.12-0.04-0.25-0.04-0.38V1.89C49.9,0.85,50.75,0,51.79,0 h4.32C57.15,0,58,0.85,58,1.89v9.27c2.35,0.5,4.61,1.93,7.12,4.5V26.6c-10.35,24.36-9.46,28.42,0.63,50.85 c6,11.03,9.77,25.94,11.43,44.51c0.05,0.5-0.41,0.92-0.92,0.92l-74.99,0c-0.69,0-1.27-0.57-1.26-1.26 c0.21-15.51,2.94-30.37,9.76-42.37c11.3-23.09,12.5-26.78,2.09-52.65l0-10.94c2.32-2.48,4.66-3.87,7-4.45V1.89 c0-1.04,0.85-1.89,1.89-1.89h4.32c1.04,0,1.89,0.85,1.89,1.89v10.2c1.41,0.58,2.81,1.34,4.2,2.23C38.46,19,38.34,18.53,45.92,14.41 L45.92,14.41L45.92,14.41z"/></g></svg>